<svg width="48" height="48" viewBox="0 0 48 48" fill="none" xmlns="http://www.w3.org/2000/svg">
<g clip-path="url(#clip0_5626_138772)">
<path d="M24.1065 8C15.2418 8 8.0564 15.1854 8.0564 24.0501C8.0564 28.4006 9.78784 32.3461 12.5988 35.2375C13.8914 34.7972 16.3637 33.5596 18.0598 30.259C19.7348 27.0036 18.8896 26.5845 19.2932 24.6879C19.8929 21.8657 21.8783 18.5086 22.3214 17.8736C22.7659 17.2386 23.6239 16.4427 24.1742 16.5006C24.6893 16.5556 25.1296 17.1836 25.4767 17.9541C25.8168 18.7076 26.147 19.701 26.147 19.701C26.147 19.701 27.8798 19.7208 29.1767 20.9626C30.4608 22.1916 29.9387 24.242 30.3055 24.6512C30.6724 25.059 31.275 25.1663 31.5431 25.6842C31.8112 26.2021 31.601 27.7204 30.266 28.7999C29.2218 29.6452 27.551 29.9147 27.551 29.9147C27.551 29.9147 26.8511 30.2111 26.4786 30.9688C26.1343 31.6701 26.1413 32.6847 26.7312 33.6655C28.3822 36.4059 26.9654 38.7568 25.893 40C33.9152 39.111 40.1552 32.3094 40.1552 24.0501C40.1566 15.1854 32.9697 8 24.1065 8Z" fill="url(#paint0_linear_5626_138772)"/>
<path d="M31.1323 13.4724C35.0651 13.4978 37.9932 15.6766 39.4085 19.0985C37.3074 12.6822 31.272 8.04663 24.1515 8.04663C15.2882 8.04663 8.10278 15.2321 8.10278 24.0953C8.10278 28.4458 9.83423 32.3913 12.6452 35.2827C14.4303 34.9003 16.4439 33.8405 18.3151 30.6373C19.8475 28.0126 19.2154 26.6678 19.7488 24.0459C20.4459 20.6296 22.159 18.0021 23.1143 16.9607C25.2564 14.8045 27.7639 13.4512 31.1323 13.4724Z" fill="url(#paint1_linear_5626_138772)"/>
</g>
<defs>
<linearGradient id="paint0_linear_5626_138772" x1="23.3046" y1="14.3177" x2="25.1855" y2="37.2016" gradientUnits="userSpaceOnUse">
<stop offset="0.15" stop-color="#0047FF"/>
<stop offset="0.38" stop-color="#087DFF"/>
<stop offset="0.57" stop-color="#1DACF8"/>
<stop offset="1" stop-color="#32F3F3"/>
</linearGradient>
<linearGradient id="paint1_linear_5626_138772" x1="26.9676" y1="13.6385" x2="15.6992" y2="33.0946" gradientUnits="userSpaceOnUse">
<stop stop-color="#31F2F2"/>
<stop offset="0.43" stop-color="#31D8F2"/>
<stop offset="0.7" stop-color="#0DB3FF"/>
<stop offset="1" stop-color="#007CEF"/>
</linearGradient>
<clipPath id="clip0_5626_138772">
<rect width="32.1002" height="32" fill="white" transform="translate(8.0564 8)"/>
</clipPath>
</defs>
</svg>