<?xml version="1.0" encoding="utf-8"?>
<svg viewBox="0 0 500 500" xmlns="http://www.w3.org/2000/svg">
    <path
        d="M 366.509 139.511 C 369.182 135.79 371.531 132.388 374.007 129.096 C 375.158 127.545 375.059 126.375 373.939 124.752 C 363.197 109.425 362.18 92.407 368.364 75.139 C 373.006 62.145 383.273 56.055 395.823 54.758 C 403.649 53.956 411.326 54.831 418.449 58.958 C 427.799 64.389 433.243 72.667 435.015 84.094 C 436.426 93.208 436.165 102.11 433.783 110.938 C 429.572 126.569 419.219 134.667 405.029 136.714 C 393.249 138.424 381.306 138.638 369.428 139.511 C 368.511 139.579 367.577 139.511 366.509 139.511 Z"
        fill="#027AFF" style="" transform="matrix(1, 0, 0, 1, -5.684341886080802e-14, 2.842170943040401e-14)" />
    <path
        d="M 337.374 69.515 L 266.41 69.515 L 210.223 208.543 L 130.793 208.543 L 130.793 70.121 L 67.323 70.121 L 67.323 428.316 L 130.81 428.316 L 130.81 277.416 L 242.754 277.416 C 262.06 277.416 279.617 265.256 287.75 246.265 L 287.75 428.316 L 351.236 428.316 L 351.236 277.416 C 351.236 241.313 325.563 211.337 292.376 208.703 L 292.376 208.526 L 257.519 208.526 C 274.496 202.222 288.292 188.552 295.626 170.784 L 337.374 69.515 Z"
        style="" transform="matrix(1, 0, 0, 1, -5.684341886080802e-14, 2.842170943040401e-14)" />
</svg>
