<svg width="100" height="100" viewBox="71 -23 60 60" fill="none" xmlns="http://www.w3.org/2000/svg">
    <g>
        <path d="M73.7449 15.9987C73.4083 15.998 73.0857 15.8638 72.8479 15.6256C72.6101 15.3873 72.4766 15.0644 72.4766 14.7278V7.165C72.4914 6.83757 72.632 6.52848 72.869 6.30203C73.1059 6.07559 73.4211 5.94922 73.7488 5.94922C74.0766 5.94922 74.3918 6.07559 74.6287 6.30203C74.8657 6.52848 75.0062 6.83757 75.0211 7.165V14.7278C75.0208 14.895 74.9875 15.0606 74.9232 15.215C74.8588 15.3693 74.7647 15.5095 74.6462 15.6276C74.5277 15.7456 74.3871 15.8391 74.2325 15.9028C74.0778 15.9665 73.9122 15.9991 73.7449 15.9987Z" fill="#1F2329"/>
        <path d="M87.3607 15.9993C87.0234 15.9993 86.6998 15.8655 86.4611 15.6272C86.2223 15.389 86.0878 15.0657 86.0871 14.7284V4.67881L81.4654 9.45281C81.2304 9.69657 80.9081 9.83697 80.5695 9.84312C80.231 9.84928 79.9038 9.72069 79.6601 9.48563C79.4163 9.25058 79.2759 8.92832 79.2697 8.58976C79.2667 8.42211 79.2967 8.25551 79.358 8.09947C79.4194 7.94342 79.5108 7.80098 79.6272 7.68028L86.4469 0.661082C86.6229 0.478921 86.8494 0.35354 87.0973 0.301033C87.3451 0.248526 87.603 0.271291 87.8378 0.366403C88.0727 0.461516 88.2737 0.624637 88.4151 0.834827C88.5566 1.04502 88.632 1.29268 88.6317 1.54603V14.7284C88.6317 15.0655 88.4978 15.3887 88.2594 15.6271C88.021 15.8654 87.6978 15.9993 87.3607 15.9993Z" fill="#1F2329"/>
        <path d="M80.5514 9.82621C80.3824 9.82749 80.2149 9.79518 80.0584 9.73117C79.902 9.66716 79.7599 9.57272 79.6402 9.45332L72.8337 2.4315C72.599 2.18948 72.4701 1.86414 72.4752 1.52705C72.4804 1.18996 72.6193 0.868726 72.8613 0.634023C73.1033 0.399319 73.4287 0.270369 73.7658 0.27554C74.1028 0.280711 74.4241 0.419579 74.6588 0.661595L81.4653 7.66767C81.6389 7.84735 81.7558 8.07413 81.8015 8.31977C81.8472 8.56541 81.8196 8.81906 81.7222 9.04914C81.6248 9.27922 81.4618 9.47557 81.2537 9.61374C81.0455 9.75191 80.8013 9.8258 80.5514 9.82621Z" fill="#1F2329"/>
        <path d="M98.3029 15.9992C97.9659 15.9992 97.6426 15.8653 97.4042 15.627C97.1659 15.3886 97.032 15.0654 97.032 14.7283V7.1655C97.032 6.82842 97.1659 6.50514 97.4042 6.26679C97.6426 6.02844 97.9659 5.89453 98.3029 5.89453C98.64 5.89453 98.9633 6.02844 99.2017 6.26679C99.44 6.50514 99.5739 6.82842 99.5739 7.1655V14.7283C99.5739 15.0654 99.44 15.3886 99.2017 15.627C98.9633 15.8653 98.64 15.9992 98.3029 15.9992Z" fill="#1F2329"/>
        <path d="M111.916 16.0004C111.579 16.0004 111.256 15.8664 111.017 15.6281C110.779 15.3897 110.645 15.0665 110.645 14.7294V4.67982L106.023 9.45382C105.788 9.69584 105.467 9.83457 105.129 9.83949C104.792 9.84442 104.466 9.71513 104.224 9.48008C103.982 9.24503 103.844 8.92346 103.839 8.58613C103.834 8.24879 103.963 7.92331 104.198 7.6813L111.005 0.662093C111.181 0.483575 111.407 0.361405 111.653 0.311007C111.899 0.260609 112.155 0.284243 112.387 0.378925C112.62 0.473608 112.819 0.635093 112.96 0.842994C113.101 1.05089 113.177 1.29589 113.179 1.54704V14.7294C113.178 15.0649 113.045 15.3866 112.809 15.6246C112.572 15.8625 112.251 15.9976 111.916 16.0004Z" fill="#1F2329"/>
        <path d="M105.109 9.82618C104.94 9.82746 104.773 9.79516 104.616 9.73115C104.46 9.66713 104.318 9.57269 104.198 9.45329L97.3917 2.43147C97.2687 2.31326 97.1708 2.1715 97.1037 2.01463C97.0367 1.85777 97.0019 1.68901 97.0015 1.51842C97.001 1.34783 97.0349 1.1789 97.1012 1.02169C97.1674 0.864476 97.2646 0.722207 97.387 0.603357C97.5093 0.484507 97.6544 0.391509 97.8135 0.329905C97.9725 0.268302 98.1424 0.239353 98.3129 0.244785C98.4834 0.250217 98.6511 0.289918 98.8059 0.361522C98.9607 0.433126 99.0996 0.535168 99.2141 0.661566L106.023 7.66764C106.197 7.84732 106.314 8.0741 106.359 8.31974C106.405 8.56538 106.378 8.81903 106.28 9.04911C106.183 9.27919 106.02 9.47554 105.812 9.61371C105.603 9.75189 105.359 9.82577 105.109 9.82618Z" fill="#1F2329"/>
        <path d="M92.8305 15.9997C92.4935 15.9997 92.1702 15.8658 91.9318 15.6274C91.6935 15.3891 91.5596 15.0658 91.5596 14.7287V1.54636C91.5596 1.20928 91.6935 0.886001 91.9318 0.647648C92.1702 0.409296 92.4935 0.275391 92.8305 0.275391C93.1676 0.275391 93.4909 0.409296 93.7292 0.647648C93.9676 0.886001 94.1015 1.20928 94.1015 1.54636V14.7287C94.1015 14.8956 94.0686 15.0609 94.0048 15.2151C93.9409 15.3693 93.8473 15.5094 93.7292 15.6274C93.6112 15.7454 93.4711 15.839 93.3169 15.9029C93.1627 15.9668 92.9974 15.9997 92.8305 15.9997Z" fill="#1F2329"/>
        <path d="M123.42 15.9814C122.03 15.9865 120.663 15.6287 119.454 14.9433C118.244 14.2579 117.235 13.2687 116.525 12.0735C115.815 10.8783 115.43 9.5185 115.407 8.12863C115.384 6.73875 115.724 5.36692 116.393 4.1488C116.561 3.86356 116.833 3.65487 117.152 3.56707C117.471 3.47927 117.811 3.51928 118.101 3.67859C118.391 3.8379 118.608 4.10397 118.704 4.42026C118.801 4.73656 118.771 5.07816 118.62 5.3725C118.053 6.40664 117.836 7.59693 118.003 8.76468C118.169 9.93243 118.71 11.0147 119.544 11.8489C120.378 12.6831 121.46 13.2244 122.628 13.3914C123.795 13.5584 124.986 13.3421 126.02 12.7751C126.315 12.6125 126.663 12.5738 126.987 12.6676C127.311 12.7614 127.584 12.98 127.747 13.2753C127.909 13.5706 127.948 13.9184 127.854 14.2422C127.76 14.566 127.542 14.8393 127.246 15.0019C126.074 15.6455 124.758 15.9824 123.42 15.9814Z" fill="#1F2329"/>
        <path d="M129.287 12.5052C129.071 12.5044 128.86 12.4484 128.672 12.3424C128.378 12.1795 128.159 11.9066 128.066 11.5833C127.972 11.26 128.009 10.9126 128.171 10.6171C128.738 9.58297 128.955 8.39268 128.788 7.22493C128.622 6.05718 128.081 4.97496 127.247 4.14073C126.413 3.30649 125.331 2.76525 124.163 2.59825C122.996 2.43125 121.805 2.64749 120.771 3.21452C120.624 3.30059 120.462 3.3564 120.293 3.37863C120.125 3.40087 119.954 3.38908 119.79 3.34397C119.626 3.29886 119.473 3.22134 119.339 3.116C119.206 3.01066 119.095 2.87964 119.013 2.73069C118.931 2.58174 118.88 2.41788 118.863 2.24882C118.845 2.07975 118.862 1.90891 118.912 1.7464C118.962 1.58389 119.044 1.43301 119.153 1.3027C119.262 1.17238 119.396 1.06527 119.547 0.987704C121.064 0.155491 122.809 -0.162266 124.522 0.0821474C126.234 0.326561 127.822 1.11995 129.045 2.34319C130.268 3.56642 131.061 5.15347 131.306 6.86604C131.55 8.5786 131.232 10.3242 130.4 11.8408C130.291 12.0411 130.13 12.2084 129.934 12.3253C129.739 12.4422 129.515 12.5043 129.287 12.5052Z" fill="#1F2329"/>
    </g>
</svg>