<svg width="257" height="257" viewBox="-8 -8 273 273" fill="none" xmlns="http://www.w3.org/2000/svg">
<path d="M97.1853 5.35901L127.346 53.1064C132.19 60.7745 126.68 70.7725 117.61 70.7725H105.279V142.278H87.4492V-0.00683594C91.1876 -0.00683594 94.926 1.78179 97.1853 5.35901Z" fill="#8FBCFA"/>
<path d="M47.5482 53.1064L77.7098 5.35901C79.9691 1.78179 83.7075 -0.00683594 87.4459 -0.00683594V142.279C81.0587 141.981 74.8755 143.829 69.616 147.544V70.7725H57.2849C48.2149 70.7725 42.7047 60.7745 47.5482 53.1064Z" fill="#468BFF"/>
<path d="M182.003 189.445L107.34 189.445C111.648 184.622 114.201 178.481 114.476 171.615H252.782C252.782 175.353 250.993 179.092 247.416 181.351L199.669 211.512C192.001 216.356 182.003 210.846 182.003 201.776V189.445Z" fill="#FDBB11"/>
<path d="M199.668 131.718L247.415 161.879C250.993 164.138 252.781 167.877 252.781 171.615H114.471C114.72 165.212 112.733 158.898 108.957 153.785H182.002V141.454C182.002 132.384 192 126.874 199.668 131.718Z" fill="#F6D785"/>
<path d="M46.9409 209.797L3.37891 253.359C6.02226 256.003 9.93035 257.381 14.0576 256.45L69.1472 244.014C77.9944 242.017 81.1678 231.051 74.7545 224.638L66.035 215.918L98.7916 183.055C105.771 176.075 105.462 164.899 98.6758 158.113L46.9409 209.797Z" fill="#FF9A9D"/>
<path d="M40.8221 190.708L73.6898 157.963C80.6694 150.983 91.8931 151.328 98.679 158.113L46.9436 209.802L3.38131 253.364C0.737954 250.721 -0.640662 246.812 0.291 242.685L12.7265 187.596C14.7236 178.748 25.6895 175.575 32.1028 181.988L40.8221 190.708Z" fill="#FE363B"/>
</svg>