<svg width="24px" height="24px" viewBox="0 0 24 24" fill="none" xmlns="http://www.w3.org/2000/svg">
  <defs>
    <linearGradient id="gradient1" x1="0%" y1="0%" x2="100%" y2="100%">
      <stop offset="0%" style="stop-color:#6366F1;stop-opacity:1" />
      <stop offset="100%" style="stop-color:#8B5CF6;stop-opacity:1" />
    </linearGradient>
  </defs>
  <path
    fillRule="evenodd"
    clipRule="evenodd"
    d="M 11.699219 1.800781 C 12.300781 1.984375 12.832031 2.203125 13.375 2.515625 C 13.523438 2.597656 13.671875 2.679688 13.820312 2.765625 C 14.058594 2.902344 14.058594 2.902344 14.296875 3.039062 C 14.632812 3.226562 14.96875 3.417969 15.304688 3.605469 C 15.476562 3.707031 15.652344 3.804688 15.824219 3.902344 C 16.671875 4.382812 17.523438 4.859375 18.375 5.335938 C 18.804688 5.574219 19.234375 5.816406 19.660156 6.054688 C 20.257812 6.386719 20.855469 6.71875 21.449219 7.050781 C 21.460938 8.449219 21.46875 9.851562 21.472656 11.25 C 21.476562 11.902344 21.480469 12.550781 21.484375 13.203125 C 21.488281 13.828125 21.492188 14.457031 21.492188 15.082031 C 21.492188 15.324219 21.496094 15.5625 21.496094 15.800781 C 21.5 16.136719 21.5 16.472656 21.5 16.808594 C 21.503906 17.09375 21.503906 17.09375 21.503906 17.386719 C 21.449219 17.851562 21.449219 17.851562 21.242188 18.125 C 20.917969 18.359375 20.585938 18.558594 20.238281 18.757812 C 20.085938 18.84375 19.929688 18.933594 19.769531 19.027344 C 19.605469 19.121094 19.4375 19.214844 19.265625 19.3125 C 19.003906 19.460938 18.742188 19.613281 18.480469 19.761719 C 18.203125 19.917969 17.929688 20.074219 17.65625 20.234375 C 16.929688 20.648438 16.203125 21.066406 15.476562 21.484375 C 15.140625 21.675781 14.804688 21.867188 14.46875 22.0625 C 14.238281 22.195312 14.238281 22.195312 14.003906 22.328125 C 13.863281 22.410156 13.71875 22.492188 13.574219 22.574219 C 13.265625 22.761719 12.984375 22.957031 12.695312 23.171875 C 12.179688 23.46875 11.972656 23.390625 11.398438 23.25 C 10.996094 23.058594 10.996094 23.058594 10.585938 22.816406 C 10.429688 22.726562 10.277344 22.636719 10.117188 22.542969 C 9.871094 22.398438 9.871094 22.398438 9.617188 22.246094 C 9.445312 22.144531 9.273438 22.042969 9.101562 21.945312 C 8.746094 21.734375 8.386719 21.523438 8.03125 21.316406 C 7.359375 20.917969 6.683594 20.523438 6.007812 20.128906 C 5.703125 19.953125 5.402344 19.773438 5.101562 19.597656 C 4.34375 19.15625 3.578125 18.722656 2.800781 18.308594 C 2.550781 18.148438 2.550781 18.148438 2.398438 17.851562 C 2.378906 17.519531 2.367188 17.183594 2.363281 16.851562 C 2.359375 16.75 2.355469 16.648438 2.355469 16.542969 C 2.335938 15.597656 2.324219 14.652344 2.316406 13.707031 C 2.3125 13.070312 2.304688 12.4375 2.289062 11.800781 C 2.277344 11.1875 2.269531 10.574219 2.265625 9.960938 C 2.265625 9.726562 2.257812 9.492188 2.253906 9.257812 C 2.203125 7.4375 2.203125 7.4375 2.675781 6.871094 C 3.023438 6.632812 3.363281 6.464844 3.75 6.300781 C 3.914062 6.203125 4.078125 6.109375 4.246094 6.007812 C 4.402344 5.925781 4.554688 5.839844 4.710938 5.753906 C 4.839844 5.683594 4.839844 5.683594 4.972656 5.613281 C 5.152344 5.515625 5.332031 5.417969 5.515625 5.316406 C 5.992188 5.058594 6.472656 4.792969 6.949219 4.53125 C 7.046875 4.480469 7.144531 4.425781 7.242188 4.371094 C 8.195312 3.847656 9.140625 3.320312 10.085938 2.785156 C 10.234375 2.703125 10.378906 2.621094 10.53125 2.535156 C 10.664062 2.460938 10.796875 2.382812 10.933594 2.308594 C 11.109375 2.207031 11.109375 2.207031 11.285156 2.109375 C 11.542969 1.96875 11.542969 1.96875 11.699219 1.800781 Z M 11.851562 4.5 C 11.820312 4.652344 11.789062 4.800781 11.753906 4.957031 C 11.207031 7.453125 10.085938 9.570312 7.941406 11.066406 C 6.816406 11.78125 5.628906 12.113281 4.351562 12.449219 C 4.351562 12.5 4.351562 12.550781 4.351562 12.601562 C 4.582031 12.648438 4.582031 12.648438 4.824219 12.699219 C 6.101562 12.984375 7.183594 13.300781 8.25 14.101562 C 8.363281 14.183594 8.476562 14.265625 8.59375 14.351562 C 10.558594 15.933594 11.488281 18.261719 11.851562 20.699219 C 11.898438 20.699219 11.949219 20.699219 12 20.699219 C 12.03125 20.554688 12.058594 20.410156 12.089844 20.257812 C 12.6875 17.503906 13.816406 15.222656 16.242188 13.65625 C 17.253906 13.054688 18.351562 12.8125 19.5 12.601562 C 19.035156 12.289062 18.695312 12.191406 18.160156 12.046875 C 15.792969 11.332031 14.222656 9.945312 13.050781 7.800781 C 12.527344 6.726562 12.175781 5.679688 12 4.5 C 11.949219 4.5 11.902344 4.5 11.851562 4.5 Z M 11.851562 4.5 "
    fill="url(#gradient1)"
  />
</svg>