<svg width="135" height="116" viewBox="0 0 135 116" fill="none" xmlns="http://www.w3.org/2000/svg">
  <path
    fillRule="evenodd"
    clipRule="evenodd"
    d="M12.5754 13.8123C24.6109 7.94459 39.1223 12.9435 44.9955 24.9805L57.5355 50.6805C60.4695 56.6936 57.9756 63.9478 51.9652 66.8832C51.9627 66.8844 51.9602 66.8856 51.9577 66.8868C45.94 69.8206 38.6843 67.3212 35.7477 61.3027L12.5754 13.8123Z"
    fill="#64B5F6"
  />
  
  <path
    opacity="0.64774"
    fillRule="evenodd"
    clipRule="evenodd"
    d="M0 38.3013C9.46916 28.836 24.813 28.836 34.2822 38.3013L55.2526 59.2631C59.9819 63.9904 59.9852 71.6582 55.2601 76.3896C55.2576 76.3921 55.2551 76.3946 55.2526 76.397C50.5181 81.1297 42.8461 81.1297 38.1116 76.397L0 38.3013Z"
    fill="#90CAF9"
  />
  
  <path
    fillRule="evenodd"
    clipRule="evenodd"
    d="M86.8777 18.0444C113.939 18.0444 135.876 39.9725 135.876 67.0222C135.876 80.2286 129.086 93.6477 120.585 102.457L117.065 98.2367C111.026 90.9998 108.882 81.2777 111.314 72.1702C111.755 70.5198 111.976 69.0033 111.976 67.6209C111.976 53.6689 100.661 42.3586 86.7029 42.3586C72.7452 42.3586 61.4303 53.6689 61.4303 67.6209C61.4303 81.5728 72.7452 92.8831 86.7029 92.8831C89.3159 92.8831 91.8363 92.4867 94.2071 91.7508C101.312 89.5455 109.054 91.3768 114.419 96.5322L120.585 102.457C111.83 110.626 99.7992 116 86.8777 116C59.8168 116 37.8796 94.0719 37.8796 67.0222C37.8796 39.9725 59.8168 18.0444 86.8777 18.0444Z"
    fill="#026EFF"
  />
  
  <path
    fillRule="evenodd"
    clipRule="evenodd"
    d="M37.8796 0C51.2677 0 62.1208 10.8581 62.1208 24.2522V41.7389C62.1208 55.133 51.2677 65.9911 37.8796 65.9911V0Z"
    fill="#026EFF"
  />
</svg>