<svg xmlns="http://www.w3.org/2000/svg" viewBox="0 0 24 24" width="24" height="24" color="currentColor" fill="none" stroke="currentColor" stroke-width="2" stroke-linecap="round">
    <path d="M6.08938 14.9992C5.71097 14.1486 5.5 13.2023 5.5 12.2051C5.5 8.50154 8.41015 5.49921 12 5.49921C15.5899 5.49921 18.5 8.50154 18.5 12.2051C18.5 13.2023 18.289 14.1486 17.9106 14.9992" />
    <!-- top rays (original) -->
    <path d="M12 1.99921V2.99921" />
    <path d="M22 11.9992H21" />
    <path d="M3 11.9992H2" />
    <path d="M19.0704 4.92792L18.3633 5.63503" />
    <path d="M5.6368 5.636L4.92969 4.92889" />
    <!-- added top rays (between existing) -->
    <path d="M21.24 8.17L20.32 8.56" />
    <path d="M15.83 2.76L15.44 3.69" />
    <path d="M8.17 2.76L8.56 3.69" />
    <path d="M2.76 8.17L3.69 8.56" />
    <!-- bottom rays: right side 2 -->
    <path d="M21.24 15.83L20.32 15.44" />
    <path d="M19.07 19.07L18.36 18.36" />
    <!-- bottom rays: left side 2 -->
    <path d="M4.93 19.07L5.64 18.36" />
    <path d="M2.76 15.83L3.69 15.44" />
    <!-- bulb base -->
    <path d="M14.517 19.3056C15.5274 18.9788 15.9326 18.054 16.0466 17.1238C16.0806 16.8459 15.852 16.6154 15.572 16.6154L8.47685 16.6156C8.18725 16.6156 7.95467 16.8614 7.98925 17.1489C8.1009 18.0773 8.3827 18.7555 9.45345 19.3056M14.517 19.3056C14.517 19.3056 9.62971 19.3056 9.45345 19.3056M14.517 19.3056C14.3955 21.2506 13.8338 22.0209 12.0068 21.9993C10.0526 22.0354 9.60303 21.0833 9.45345 19.3056" />
</svg>
