<svg xmlns="http://www.w3.org/2000/svg" width="160" height="160" viewBox="0 0 160 160" fill="none">
<g transform="translate(2, 10)">
<mask id="path-1-inside-1_5_410" fill="white">
<path d="M150.677 88.7113C146.612 86.2493 137.909 85.542 124.794 86.6076C128.992 73.6776 133.757 51.3911 121.323 41.1527C115.886 36.6743 107.471 35.0437 97.6162 36.5594C94.6758 37.0142 91.5752 37.7445 88.3878 38.732C78.8667 24.2816 66.2954 16 53.8613 16C39.4288 16 26.1304 25.3381 16.4081 42.2872C5.67515 61.014 0 87.9626 0 120.23V120.533L3.60356 122.94L3.88251 122.825C30.5754 111.563 67.5759 101.072 100.593 95.4037C101.604 103.644 102.116 111.994 102.116 120.235V120.52L105.491 123L105.761 122.913C106.255 122.752 155.159 106.882 153.979 93.5894C153.856 92.2022 153.183 90.2271 150.677 88.7113ZM148.409 94.09C148.715 97.5442 133.236 107.057 111.838 114.888C115.968 108.1 119.818 100.172 122.777 92.3584C135.659 91.1411 144.531 91.5545 147.792 93.5296C148.377 93.8833 148.409 94.09 148.409 94.09ZM116.668 93.0106C114.084 99.3769 110.951 105.633 107.54 111.246C107.334 105.513 106.913 99.8821 106.296 94.4621C109.922 93.8971 113.407 93.4102 116.668 93.0106ZM117.774 45.4979C125.379 51.7585 125.782 67.3205 118.867 87.1772C114.747 87.6319 110.284 88.2382 105.596 88.9777C103.049 71.1742 98.2839 55.966 91.4243 43.7525C94.566 42.8155 96.9669 42.3469 98.4622 42.1127C106.721 40.8404 113.581 42.0438 117.774 45.4979ZM53.8567 21.6221C65.0561 21.6221 74.8882 28.0022 83.0922 40.5923C57.7027 50.5413 30.3193 75.4092 5.78032 110.8C7.43119 67.4813 23.0299 21.6221 53.8613 21.6221M10.1933 114.241C40.7504 69.9341 68.2024 52.4429 86.0739 45.5852C92.4487 57.2383 97.2046 72.5522 99.8433 89.9331C70.5209 95.0316 35.6377 104.498 10.1933 114.241Z"/>
</mask>
<path d="M150.677 88.7113C146.612 86.2493 137.909 85.542 124.794 86.6076C128.992 73.6776 133.757 51.3911 121.323 41.1527C115.886 36.6743 107.471 35.0437 97.6162 36.5594C94.6758 37.0142 91.5752 37.7445 88.3878 38.732C78.8667 24.2816 66.2954 16 53.8613 16C39.4288 16 26.1304 25.3381 16.4081 42.2872C5.67515 61.014 0 87.9626 0 120.23V120.533L3.60356 122.94L3.88251 122.825C30.5754 111.563 67.5759 101.072 100.593 95.4037C101.604 103.644 102.116 111.994 102.116 120.235V120.52L105.491 123L105.761 122.913C106.255 122.752 155.159 106.882 153.979 93.5894C153.856 92.2022 153.183 90.2271 150.677 88.7113ZM148.409 94.09C148.715 97.5442 133.236 107.057 111.838 114.888C115.968 108.1 119.818 100.172 122.777 92.3584C135.659 91.1411 144.531 91.5545 147.792 93.5296C148.377 93.8833 148.409 94.09 148.409 94.09ZM116.668 93.0106C114.084 99.3769 110.951 105.633 107.54 111.246C107.334 105.513 106.913 99.8821 106.296 94.4621C109.922 93.8971 113.407 93.4102 116.668 93.0106ZM117.774 45.4979C125.379 51.7585 125.782 67.3205 118.867 87.1772C114.747 87.6319 110.284 88.2382 105.596 88.9777C103.049 71.1742 98.2839 55.966 91.4243 43.7525C94.566 42.8155 96.9669 42.3469 98.4622 42.1127C106.721 40.8404 113.581 42.0438 117.774 45.4979ZM53.8567 21.6221C65.0561 21.6221 74.8882 28.0022 83.0922 40.5923C57.7027 50.5413 30.3193 75.4092 5.78032 110.8C7.43119 67.4813 23.0299 21.6221 53.8613 21.6221M10.1933 114.241C40.7504 69.9341 68.2024 52.4429 86.0739 45.5852C92.4487 57.2383 97.2046 72.5522 99.8433 89.9331C70.5209 95.0316 35.6377 104.498 10.1933 114.241Z" fill="black"/>
<path d="M150.677 88.7113L150.159 89.5667L150.16 89.567L150.677 88.7113ZM124.794 86.6076L123.843 86.2988L123.379 87.7258L124.875 87.6043L124.794 86.6076ZM121.323 41.1527L120.687 41.9246L120.687 41.9247L121.323 41.1527ZM97.6162 36.5594L97.4642 35.5711L97.4634 35.5712L97.6162 36.5594ZM88.3878 38.732L87.5528 39.2822L87.9661 39.9096L88.6838 39.6873L88.3878 38.732ZM16.4081 42.2872L15.5407 41.7897L15.5405 41.79L16.4081 42.2872ZM0 120.533H-1V121.068L-0.555418 121.365L0 120.533ZM3.60356 122.94L3.04814 123.772L3.49136 124.068L3.98422 123.865L3.60356 122.94ZM3.88251 122.825L4.26319 123.75L4.27126 123.747L3.88251 122.825ZM100.593 95.4037L101.586 95.282L101.458 94.2406L100.424 94.4181L100.593 95.4037ZM102.116 120.52H101.116V121.026L101.524 121.325L102.116 120.52ZM105.491 123L104.899 123.806L105.311 124.109L105.799 123.951L105.491 123ZM105.761 122.913L106.069 123.864L106.07 123.864L105.761 122.913ZM153.979 93.5894L154.975 93.5009L154.975 93.5007L153.979 93.5894ZM148.409 94.09L149.405 94.0017L149.402 93.9692L149.397 93.9371L148.409 94.09ZM111.838 114.888L110.984 114.369L109.499 116.809L112.182 115.827L111.838 114.888ZM122.777 92.3584L122.683 91.3628L122.063 91.4214L121.842 92.0042L122.777 92.3584ZM147.792 93.5296L147.274 94.385L147.275 94.3855L147.792 93.5296ZM116.668 93.0106L117.594 93.3867L118.234 91.8112L116.546 92.018L116.668 93.0106ZM107.54 111.246L106.54 111.282L106.66 114.618L108.394 111.765L107.54 111.246ZM106.296 94.4621L106.142 93.474L105.194 93.6217L105.302 94.5752L106.296 94.4621ZM117.774 45.4979L117.138 46.2698L117.139 46.27L117.774 45.4979ZM118.867 87.1772L118.977 88.1711L119.604 88.1019L119.812 87.506L118.867 87.1772ZM105.596 88.9777L104.606 89.1193L104.75 90.1236L105.752 89.9655L105.596 88.9777ZM91.4243 43.7525L91.1385 42.7942L89.94 43.1517L90.5524 44.2422L91.4243 43.7525ZM98.4622 42.1127L98.31 41.1243L98.3075 41.1247L98.4622 42.1127ZM83.0922 40.5923L83.4571 41.5234L84.6005 41.0753L83.9301 40.0464L83.0922 40.5923ZM5.78032 110.8L4.78105 110.762L4.65062 114.185L6.60211 111.37L5.78032 110.8ZM10.1933 114.241L9.37012 113.673L7.53919 116.328L10.5509 115.175L10.1933 114.241ZM86.0739 45.5852L86.9512 45.1053L86.5317 44.3384L85.7156 44.6516L86.0739 45.5852ZM99.8433 89.9331L100.015 90.9183L100.979 90.7507L100.832 89.783L99.8433 89.9331ZM151.195 87.8559C148.961 86.5027 145.58 85.695 141.21 85.3399C136.813 84.9825 131.3 85.0757 124.713 85.6109L124.875 87.6043C131.403 87.0739 136.799 86.9879 141.048 87.3333C145.325 87.6809 148.328 88.4579 150.159 89.5667L151.195 87.8559ZM125.745 86.9164C127.857 80.4123 130.131 71.5004 130.295 62.8899C130.459 54.3005 128.524 45.7868 121.959 40.3807L120.687 41.9247C126.556 46.757 128.455 54.5057 128.296 62.8517C128.137 71.1765 125.929 79.8728 123.843 86.2988L125.745 86.9164ZM121.959 40.3808C116.222 35.6562 107.48 34.0305 97.4642 35.5711L97.7682 37.5478C107.462 36.0568 115.549 37.6923 120.687 41.9246L121.959 40.3808ZM97.4634 35.5712C94.4689 36.0343 91.3204 36.7765 88.0919 37.7768L88.6838 39.6873C91.83 38.7125 94.8826 37.9941 97.7691 37.5477L97.4634 35.5712ZM89.2229 38.1819C79.5962 23.5712 66.7542 15 53.8613 15V17C65.8367 17 78.1373 24.9921 87.5528 39.2822L89.2229 38.1819ZM53.8613 15C38.9467 15 25.3696 24.6547 15.5407 41.7897L17.2755 42.7848C26.8912 26.0215 39.9109 17 53.8613 17V15ZM15.5405 41.79C4.68822 60.7249 -1 87.868 -1 120.23H1C1 88.0572 6.66208 61.303 17.2757 42.7845L15.5405 41.79ZM-1 120.23V120.533H1V120.23H-1ZM-0.555418 121.365L3.04814 123.772L4.15898 122.109L0.555418 119.702L-0.555418 121.365ZM3.98422 123.865L4.26317 123.75L3.50185 121.901L3.2229 122.016L3.98422 123.865ZM4.27126 123.747C30.8837 112.518 67.809 102.046 100.762 96.3893L100.424 94.4181C67.3427 100.097 30.2671 110.608 3.49376 121.904L4.27126 123.747ZM99.6007 95.5254C100.606 103.726 101.116 112.035 101.116 120.235H103.116C103.116 111.953 102.601 103.562 101.586 95.282L99.6007 95.5254ZM101.116 120.235V120.52H103.116V120.235H101.116ZM101.524 121.325L104.899 123.806L106.083 122.194L102.708 119.714L101.524 121.325ZM105.799 123.951L106.069 123.864L105.453 121.961L105.183 122.049L105.799 123.951ZM106.07 123.864C106.326 123.781 118.722 119.758 130.919 114.082C137.012 111.247 143.105 107.977 147.617 104.553C149.871 102.842 151.772 101.061 153.078 99.2425C154.383 97.4253 155.151 95.4871 154.975 93.5009L152.983 93.6778C153.102 95.0148 152.6 96.4804 151.454 98.076C150.309 99.67 148.579 101.312 146.408 102.96C142.066 106.255 136.124 109.455 130.076 112.269C117.992 117.892 105.69 121.884 105.451 121.962L106.07 123.864ZM154.975 93.5007C154.828 91.8459 154.013 89.5605 151.195 87.8557L150.16 89.567C152.353 90.8937 152.883 92.5585 152.983 93.678L154.975 93.5007ZM147.413 94.1784C147.419 94.2449 147.385 94.5226 146.991 95.0704C146.62 95.5869 146.022 96.2139 145.181 96.9378C143.504 98.3814 140.987 100.104 137.759 101.983C131.313 105.737 122.149 110.05 111.495 113.949L112.182 115.827C122.925 111.895 132.199 107.536 138.766 103.712C142.045 101.802 144.678 100.01 146.486 98.4535C147.387 97.6775 148.115 96.9335 148.615 96.238C149.093 95.5738 149.476 94.7987 149.405 94.0017L147.413 94.1784ZM112.693 115.408C116.856 108.564 120.733 100.58 123.712 92.7125L121.842 92.0042C118.904 99.7626 115.08 107.635 110.984 114.369L112.693 115.408ZM122.871 93.3539C129.286 92.7478 134.674 92.5507 138.846 92.7458C143.077 92.9437 145.879 93.5405 147.274 94.385L148.31 92.6743C146.443 91.5437 143.18 90.9463 138.939 90.748C134.64 90.5469 129.151 90.7517 122.683 91.3628L122.871 93.3539ZM147.275 94.3855C147.506 94.5251 147.566 94.5993 147.557 94.5886C147.551 94.5814 147.525 94.5494 147.496 94.4905C147.482 94.4611 147.467 94.4254 147.454 94.3836C147.447 94.3628 147.441 94.3406 147.435 94.317C147.432 94.3053 147.43 94.2932 147.427 94.2809C147.426 94.2747 147.425 94.2684 147.424 94.2621C147.423 94.259 147.423 94.2558 147.422 94.2526C147.422 94.251 147.422 94.2494 147.422 94.2478C147.421 94.247 147.421 94.2458 147.421 94.2454C147.421 94.2442 147.421 94.243 148.409 94.09C149.397 93.9371 149.397 93.9359 149.397 93.9347C149.397 93.9342 149.397 93.933 149.396 93.9322C149.396 93.9306 149.396 93.929 149.396 93.9274C149.395 93.9241 149.395 93.9209 149.394 93.9176C149.393 93.9111 149.392 93.9045 149.39 93.898C149.388 93.8848 149.385 93.8715 149.382 93.8582C149.376 93.8314 149.368 93.8045 149.359 93.7773C149.342 93.7228 149.32 93.6682 149.294 93.6139C149.241 93.5052 149.17 93.3994 149.083 93.2964C148.912 93.0938 148.663 92.8879 148.309 92.6737L147.275 94.3855ZM115.741 92.6345C113.176 98.9533 110.068 105.161 106.685 110.727L108.394 111.765C111.835 106.105 114.991 99.8004 117.594 93.3867L115.741 92.6345ZM108.539 111.21C108.332 105.453 107.91 99.7953 107.289 94.3489L105.302 94.5752C105.917 99.9689 106.335 105.575 106.54 111.282L108.539 111.21ZM106.45 95.4502C110.066 94.8867 113.54 94.4013 116.789 94.0032L116.546 92.018C113.274 92.4191 109.778 92.9075 106.142 93.474L106.45 95.4502ZM117.139 46.27C120.623 49.1381 122.583 54.2489 122.766 61.2651C122.949 68.2612 121.355 76.991 117.923 86.8483L119.812 87.506C123.294 77.5066 124.956 68.5271 124.765 61.2129C124.575 53.9189 122.531 48.1184 118.41 44.7259L117.139 46.27ZM118.757 86.1832C114.62 86.6399 110.141 87.2484 105.44 87.9899L105.752 89.9655C110.426 89.228 114.874 88.6239 118.977 88.1711L118.757 86.1832ZM106.586 88.8361C104.026 70.9435 99.2308 55.6098 92.2962 43.2628L90.5524 44.2422C97.337 56.3221 102.072 71.405 104.606 89.1193L106.586 88.8361ZM91.7101 44.7108C94.8053 43.7876 97.1621 43.3286 98.617 43.1006L98.3075 41.1247C96.7716 41.3653 94.3268 41.8433 91.1385 42.7942L91.7101 44.7108ZM98.6145 43.101C106.743 41.8489 113.26 43.0751 117.138 46.2698L118.41 44.726C113.901 41.0124 106.7 39.8319 98.31 41.1243L98.6145 43.101ZM53.8567 22.6221C64.6072 22.6221 74.1649 28.7239 82.2544 41.1383L83.9301 40.0464C75.6115 27.2805 65.5051 20.6221 53.8567 20.6221V22.6221ZM82.7274 39.6612C57.0744 49.7135 29.5503 74.7632 4.95854 110.23L6.60211 111.37C31.0882 76.0552 58.3309 51.3692 83.4571 41.5234L82.7274 39.6612ZM6.7796 110.838C7.60175 89.265 11.8976 67.1138 19.7826 50.3931C27.6834 33.6388 39.031 22.6221 53.8613 22.6221V20.6221C37.8602 20.6221 25.9927 32.5351 17.9736 49.5401C9.93868 66.5787 5.60977 89.0165 4.78105 110.762L6.7796 110.838ZM11.0165 114.808C41.4825 70.634 68.7841 53.2908 86.4321 46.5188L85.7156 44.6516C67.6207 51.595 40.0183 69.2342 9.37012 113.673L11.0165 114.808ZM85.1965 46.0651C91.5004 57.5885 96.2282 72.7828 98.8546 90.0832L100.832 89.783C98.1811 72.3217 93.3969 56.8881 86.9512 45.1053L85.1965 46.0651ZM99.672 88.9479C70.2915 94.0565 35.3454 103.54 9.83575 113.307L10.5509 115.175C35.93 105.457 70.7503 96.0067 100.015 90.9183L99.672 88.9479Z" fill="black" mask="url(#path-1-inside-1_5_410)"/>
</svg>