<svg xmlns="http://www.w3.org/2000/svg" viewBox="-30 -30 816.913 816.913" width="256" height="256">
  <defs>
    <linearGradient id="cloudGradient" x1="0%" y1="0%" x2="0%" y2="100%">
      <stop offset="0%" style="stop-color:#E8F4F8;stop-opacity:1" />
      <stop offset="100%" style="stop-color:#78B8D8;stop-opacity:1" />
    </linearGradient>
  </defs>
  <path fill="url(#cloudGradient)" d="M328.631 0c53.141 0 101.253 21.531 136.087 56.347 15.903-4.253 32.618-6.523 49.863-6.523 106.319 0 192.508 86.189 192.508 192.508 0 17.244-2.271 33.959-6.524 49.862 34.816 34.835 56.348 82.946 56.348 136.087 0 89.075-60.499 164.018-142.647 185.986-21.969 82.147-96.91 142.646-185.985 142.646-53.14 0-101.252-21.533-136.086-56.348-15.903 4.253-32.617 6.524-49.862 6.524-106.319 0-192.508-86.19-192.509-192.509 0-17.245 2.27-33.96 6.523-49.863C21.532 429.883 0 381.771 0 328.631c0-89.074 60.497-164.017 142.645-185.985C164.613 60.498 239.556 0 328.631 0"/>
  <path fill="#1a2e4a" d="M325.077 304.774c-13.298-49.627-57.319-80.955-98.311-69.971s-63.452 60.125-50.155 109.753q.324 1.21.677 2.411l-.028.007 13.592 50.726c13.297 49.628 57.319 80.956 98.311 69.972s63.452-60.125 50.154-109.753l-13.591-50.727-.03.008q-.295-1.217-.619-2.426"/>
  <path fill="#1a2e4a" d="M551.148 248.953c-13.298-49.627-57.319-80.955-98.311-69.972s-63.452 60.126-50.154 109.753q.323 1.21.675 2.412l-.028.007 13.593 50.727c13.298 49.627 57.319 80.955 98.311 69.972 40.992-10.985 63.452-60.126 50.155-109.753l-13.593-50.727-.029.008q-.295-1.217-.619-2.427"/>
  <path fill="#E8F4F8" d="M272.375 346.229c6.406-1.717 12.991 2.086 14.707 8.491s-2.086 12.988-8.491 14.705c-6.405 1.716-12.988-2.085-14.705-8.49-1.716-6.405 2.085-12.99 8.489-14.706"/>
  <path fill="#E8F4F8" d="M219.035 271.362a64.18 64.18 0 0 0 51.024 29.459 64.18 64.18 0 0 0-29.458 51.023 64.18 64.18 0 0 0-51.024-29.458 64.18 64.18 0 0 0 29.458-51.024"/>
  <path fill="#E8F4F8" d="M498.447 290.407c6.405-1.716 12.99 2.086 14.707 8.491 1.715 6.406-2.087 12.99-8.492 14.706s-12.989-2.085-14.706-8.49 2.086-12.99 8.491-14.707"/>
  <path fill="#E8F4F8" d="M445.107 215.542A64.18 64.18 0 0 0 496.201 245a64.19 64.19 0 0 0-29.458 51.023 64.18 64.18 0 0 0-51.023-29.458 64.18 64.18 0 0 0 29.458-51.023"/>
</svg>